<svg xmlns="http://www.w3.org/2000/svg" width="28" height="20" viewBox="0 0 28 20">
  <path id="cloud-upload-alt-solid" d="M16,7a8.869,8.869,0,0,0-6.594,3.063A3.276,3.276,0,0,0,9,10a4.013,4.013,0,0,0-4,4,5.9,5.9,0,0,0-3,5,6.017,6.017,0,0,0,6,6h5V23H8a4,4,0,0,1-1.562-7.687l.688-.281-.094-.75C7.012,14.117,7,14.023,7,14a1.984,1.984,0,0,1,2-2,1.937,1.937,0,0,1,.469.063l.625.156.375-.5a6.991,6.991,0,0,1,12.313,2.563l.188.781.844-.031c.211-.012.258-.031.188-.031a4,4,0,0,1,0,8H19v2h5a5.959,5.959,0,0,0,.406-11.906A8.931,8.931,0,0,0,16,7Zm0,8-4,4h3v8h2V19h3Z" transform="translate(-2 -7)" fill="#506270"/>
</svg>
