<svg id="Group_864" data-name="Group 864" xmlns="http://www.w3.org/2000/svg" width="13.267" height="24.54" viewBox="0 0 13.267 24.54">
  <g id="Group_855" data-name="Group 855" transform="translate(0)">
    <path id="Path_1121" data-name="Path 1121" d="M952.767,264.005,949.585,264c-3.575,0-5.886,2.371-5.886,6.039v2.784h-3.2a.5.5,0,0,0-.5.5v4.034a.5.5,0,0,0,.5.5h3.2v10.18a.5.5,0,0,0,.5.5h4.174a.5.5,0,0,0,.5-.5v-10.18h3.74a.5.5,0,0,0,.5-.5v-4.034a.5.5,0,0,0-.5-.5h-3.741v-2.36c0-1.134.27-1.711,1.747-1.711h2.144a.5.5,0,0,0,.5-.5v-3.747a.5.5,0,0,0-.5-.5Zm0,0" transform="translate(-940 -264)" fill="#3b5998"/>
  </g>
</svg>
