<svg xmlns="http://www.w3.org/2000/svg" width="26.001" height="26.001" viewBox="0 0 26.001 26.001">
  <path id="ghost-solid" d="M16,3a7.145,7.145,0,0,0-4.5,1.344,7.216,7.216,0,0,0-2.125,3c-.437,1.039-.719,2.035-1,2.75s-.516.992-.719,1.063A7.117,7.117,0,0,0,3,18v1H4a3.686,3.686,0,0,1,2.313.531,1.414,1.414,0,0,1,.5,1.031c.07.5.035,1.1.125,1.781a2.726,2.726,0,0,0,.344,1.094,2.084,2.084,0,0,0,1.094.844,14.142,14.142,0,0,1,2.156.813,2.139,2.139,0,0,1,1,1.156,4.744,4.744,0,0,0,1.5,1.938A5.074,5.074,0,0,0,16.094,29a4.734,4.734,0,0,0,4-2.062c.324-.477.551-.887.75-1.156a.959.959,0,0,1,.531-.437,4.635,4.635,0,0,0,2.719-1.875,6.448,6.448,0,0,0,.719-2.062,1.3,1.3,0,0,1,.563-.937A5.027,5.027,0,0,1,28,20h1V19a11.76,11.76,0,0,0-.562-4.5,5.741,5.741,0,0,0-4.281-3.375c-.024,0-.051.008-.156-.125a3.21,3.21,0,0,1-.406-.75c-.281-.7-.551-1.723-1-2.781a7.683,7.683,0,0,0-2.156-3.062A6.863,6.863,0,0,0,16,3Zm0,2a4.735,4.735,0,0,1,3.188.969A5.709,5.709,0,0,1,20.75,8.25c.383.9.652,1.879,1,2.75a4.724,4.724,0,0,0,.656,1.219,2.337,2.337,0,0,0,1.281.875c1.8.41,2.469,1.148,2.875,2.156a8.834,8.834,0,0,1,.344,2.844,5.712,5.712,0,0,0-2.656.719,3.532,3.532,0,0,0-1.375,2.094,5.994,5.994,0,0,1-.469,1.5,2.534,2.534,0,0,1-1.625,1.031,3.12,3.12,0,0,0-1.562,1.156c-.34.453-.543.867-.781,1.219A2.293,2.293,0,0,1,16.063,27a3.007,3.007,0,0,1-1.875-.437,2.8,2.8,0,0,1-.875-1.156,4.482,4.482,0,0,0-1.781-2.062A13.687,13.687,0,0,0,9,22.375a.649.649,0,0,1-.094-.281c-.051-.383-.02-1.059-.125-1.812a3.513,3.513,0,0,0-1.219-2.312,4.719,4.719,0,0,0-2.312-.812,4.872,4.872,0,0,1,3.063-4.125,3.428,3.428,0,0,0,1.938-2.187c.352-.887.6-1.875.969-2.75a5.059,5.059,0,0,1,1.5-2.156A5.075,5.075,0,0,1,16,5ZM13,9c-.551,0-1,.672-1,1.5s.449,1.5,1,1.5,1-.672,1-1.5S13.551,9,13,9Zm4,0c-.551,0-1,.672-1,1.5s.449,1.5,1,1.5,1-.672,1-1.5S17.551,9,17,9Z" transform="translate(-3 -3)" fill="#b1ea8c"/>
</svg>
