<svg id="Group_862" data-name="Group 862" xmlns="http://www.w3.org/2000/svg" width="24.54" height="24.54" viewBox="0 0 24.54 24.54">
  <g id="Group_859" data-name="Group 859">
    <g id="Group_856" data-name="Group 856">
      <path id="Path_1123" data-name="Path 1123" d="M913.768,237h-11A6.78,6.78,0,0,0,896,243.772v11a6.779,6.779,0,0,0,6.772,6.772h11a6.78,6.78,0,0,0,6.772-6.772v-11A6.78,6.78,0,0,0,913.768,237Zm4.6,17.768a4.6,4.6,0,0,1-4.6,4.6h-11a4.6,4.6,0,0,1-4.595-4.6v-11a4.6,4.6,0,0,1,4.595-4.6h11a4.6,4.6,0,0,1,4.6,4.6Zm0,0" transform="translate(-896 -237)" fill="#e1306c"/>
      <path id="Path_1124" data-name="Path 1124" d="M931.545,267.727a4.818,4.818,0,1,0,4.818,4.818,4.823,4.823,0,0,0-4.818-4.818Zm0,7.977a3.159,3.159,0,1,1,3.159-3.159,3.162,3.162,0,0,1-3.159,3.159Zm0,0" transform="translate(-919.275 -260.275)" fill="#e1306c"/>
      <path id="Path_1125" data-name="Path 1125" d="M987.192,258.188a2,2,0,1,0,1.415.585,2.011,2.011,0,0,0-1.415-.585Zm0,0" transform="translate(-968.583 -254.243)" fill="#e1306c"/>
    </g>
  </g>
</svg>
