<svg id="Group_861" data-name="Group 861" xmlns="http://www.w3.org/2000/svg" width="25.681" height="24.54" viewBox="0 0 25.681 24.54">
  <g id="Group_860" data-name="Group 860">
    <g id="Group_857" data-name="Group 857">
      <path id="Path_1126" data-name="Path 1126" d="M823.681,161.045v9.495h-5.5v-8.859c0-2.225-.8-3.744-2.789-3.744a3.012,3.012,0,0,0-2.824,2.014,3.769,3.769,0,0,0-.183,1.342v9.247h-5.506s.074-15,0-16.558h5.506v2.347c-.011.018-.026.037-.036.053h.036v-.053a5.467,5.467,0,0,1,4.962-2.736c3.623,0,6.338,2.367,6.338,7.453ZM801.116,146a2.869,2.869,0,1,0-.073,5.723h.037a2.87,2.87,0,1,0,.036-5.723Zm-2.789,24.54h5.5V153.982h-5.5Zm0,0" transform="translate(-798 -146)" fill="#0077b5"/>
    </g>
  </g>
</svg>
