<svg xmlns="http://www.w3.org/2000/svg" width="24" height="24" viewBox="0 0 24 24">
  <path id="parachute-box-solid" d="M28,16A12,12,0,0,0,4,16v.453l8,7V28h8V23.453l8-7ZM16,6.363a12.565,12.565,0,0,1,2.871,7.293A6.137,6.137,0,0,0,16,13a6.137,6.137,0,0,0-2.871.656A12.565,12.565,0,0,1,16,6.363ZM11.086,16.4l2.4,5.6h-.109L6.336,15.84A2.9,2.9,0,0,1,8.5,15,2.8,2.8,0,0,1,11.086,16.4ZM15.66,22l-2.52-5.875A3.637,3.637,0,0,1,16,15a3.644,3.644,0,0,1,2.859,1.121L16.34,22Zm2.855,0,2.4-5.6A2.759,2.759,0,0,1,23.5,15a2.914,2.914,0,0,1,2.16.844L18.625,22Zm7.145-8.555A5.135,5.135,0,0,0,23.5,13a5.018,5.018,0,0,0-2.621.684,16.093,16.093,0,0,0-2.4-7.363A10.023,10.023,0,0,1,25.66,13.445ZM13.519,6.324a16.11,16.11,0,0,0-2.4,7.359A5.018,5.018,0,0,0,8.5,13a5.134,5.134,0,0,0-2.16.445A10.013,10.013,0,0,1,13.519,6.324ZM18,26H14V24h4Z" transform="translate(-4 -4)" fill="#80e0dd"/>
</svg>
