<svg xmlns="http://www.w3.org/2000/svg" width="44.716" height="42.853" viewBox="0 0 44.716 42.853">
  <path id="share-alt-solid" d="M26.358,4a7.441,7.441,0,0,0-7.394,7.161A18.5,18.5,0,0,0,7.726,28.221c0,.32-.015.67,0,1.048A7.432,7.432,0,0,0,14.48,42.486a18.337,18.337,0,0,0,23.755,0,7.442,7.442,0,0,0,6.7-13.275,9.572,9.572,0,0,0,.058-.99,18.5,18.5,0,0,0-11.237-17.06A7.441,7.441,0,0,0,26.358,4Zm0,3.726a3.726,3.726,0,1,1-3.726,3.726A3.7,3.7,0,0,1,26.358,7.726Zm-6.579,7.161a7.4,7.4,0,0,0,13.159,0,14.786,14.786,0,0,1,8.326,13.333,7.476,7.476,0,0,0-7.453,7.453A7.3,7.3,0,0,0,35.324,40.1a14.791,14.791,0,0,1-17.933,0,7.3,7.3,0,0,0,1.514-4.425,7.476,7.476,0,0,0-7.453-7.453A14.786,14.786,0,0,1,19.779,14.888Zm-8.326,17.06a3.726,3.726,0,1,1-3.726,3.726A3.7,3.7,0,0,1,11.453,31.947Zm29.81,0a3.726,3.726,0,1,1-3.726,3.726A3.7,3.7,0,0,1,41.263,31.947Z" transform="translate(-4 -4)" fill="#15354b"/>
</svg>
