<svg xmlns="http://www.w3.org/2000/svg" width="42.591" height="37.677" viewBox="0 0 42.591 37.677">
  <path id="tty-solid" d="M24.3,4A54.5,54.5,0,0,0,8.887,6.252,8.245,8.245,0,0,0,3,14.136v4.607a3.3,3.3,0,0,0,3.276,3.276h6.552A3.3,3.3,0,0,0,16.1,18.743v-4.3a6.151,6.151,0,0,1,1.28-.461,24.734,24.734,0,0,1,6.911-.87,24.736,24.736,0,0,1,6.911.87,6.152,6.152,0,0,1,1.28.461v4.3a3.3,3.3,0,0,0,3.276,3.276h6.552a3.3,3.3,0,0,0,3.276-3.276V14.136A8.251,8.251,0,0,0,39.7,6.252,54.739,54.739,0,0,0,24.3,4Zm0,3.276a51.6,51.6,0,0,1,14.487,2.1,4.939,4.939,0,0,1,3.532,4.761v4.607H35.762V12.4l-.819-.461a13.784,13.784,0,0,0-2.815-1.126A28.24,28.24,0,0,0,24.3,9.836a28.238,28.238,0,0,0-7.832.973,13.783,13.783,0,0,0-2.816,1.126l-.819.461v6.348H6.276V14.136A4.939,4.939,0,0,1,9.808,9.375,51.6,51.6,0,0,1,24.3,7.276ZM14.467,25.3a3.276,3.276,0,1,0,3.276,3.276A3.274,3.274,0,0,0,14.467,25.3Zm9.829,0a3.276,3.276,0,1,0,3.276,3.276A3.274,3.274,0,0,0,24.3,25.3Zm9.829,0A3.276,3.276,0,1,0,37.4,28.572,3.274,3.274,0,0,0,34.124,25.3ZM14.467,35.124A3.276,3.276,0,1,0,17.743,38.4,3.274,3.274,0,0,0,14.467,35.124Zm9.829,0A3.276,3.276,0,1,0,27.572,38.4,3.274,3.274,0,0,0,24.3,35.124Zm9.829,0A3.276,3.276,0,1,0,37.4,38.4,3.274,3.274,0,0,0,34.124,35.124Z" transform="translate(-3 -4)" fill="#15354b"/>
</svg>
