<svg xmlns="http://www.w3.org/2000/svg" width="26" height="23" viewBox="0 0 26 23">
  <path id="tty-solid" d="M16,4A33.273,33.273,0,0,0,6.594,5.375,5.033,5.033,0,0,0,3,10.188V13a2.014,2.014,0,0,0,2,2H9a2.014,2.014,0,0,0,2-2V10.375a3.755,3.755,0,0,1,.781-.281A15.1,15.1,0,0,1,16,9.563a15.1,15.1,0,0,1,4.219.531,3.755,3.755,0,0,1,.781.281V13a2.014,2.014,0,0,0,2,2h4a2.014,2.014,0,0,0,2-2V10.188a5.037,5.037,0,0,0-3.594-4.812A33.416,33.416,0,0,0,16,4Zm0,2a31.5,31.5,0,0,1,8.844,1.281A3.015,3.015,0,0,1,27,10.188V13H23V9.125l-.5-.281a8.415,8.415,0,0,0-1.719-.687A17.239,17.239,0,0,0,16,7.563a17.238,17.238,0,0,0-4.781.594A8.414,8.414,0,0,0,9.5,8.844L9,9.125V13H5V10.188A3.015,3.015,0,0,1,7.156,7.281,31.5,31.5,0,0,1,16,6ZM10,17a2,2,0,1,0,2,2A2,2,0,0,0,10,17Zm6,0a2,2,0,1,0,2,2A2,2,0,0,0,16,17Zm6,0a2,2,0,1,0,2,2A2,2,0,0,0,22,17ZM10,23a2,2,0,1,0,2,2A2,2,0,0,0,10,23Zm6,0a2,2,0,1,0,2,2A2,2,0,0,0,16,23Zm6,0a2,2,0,1,0,2,2A2,2,0,0,0,22,23Z" transform="translate(-3 -4)" fill="#ffe35a"/>
</svg>
