<svg id="Group_863" data-name="Group 863" xmlns="http://www.w3.org/2000/svg" width="30.203" height="24.54" viewBox="0 0 30.203 24.54">
  <g id="Group_858" data-name="Group 858">
    <path id="Path_1122" data-name="Path 1122" d="M30.2,66.905a12.91,12.91,0,0,1-3.568.978,6.157,6.157,0,0,0,2.724-3.422,12.374,12.374,0,0,1-3.926,1.5,6.192,6.192,0,0,0-10.711,4.234,6.376,6.376,0,0,0,.143,1.412A17.526,17.526,0,0,1,2.1,65.129a6.194,6.194,0,0,0,1.9,8.276,6.115,6.115,0,0,1-2.8-.763v.068a6.22,6.22,0,0,0,4.961,6.084,6.18,6.18,0,0,1-1.623.2,5.474,5.474,0,0,1-1.172-.106,6.251,6.251,0,0,0,5.786,4.313,12.442,12.442,0,0,1-7.677,2.641A11.594,11.594,0,0,1,0,85.761,17.432,17.432,0,0,0,9.5,88.54c11.394,0,17.624-9.439,17.624-17.62,0-.274-.009-.538-.023-.8A12.353,12.353,0,0,0,30.2,66.905Z" transform="translate(0 -64)" fill="#1da1f2"/>
  </g>
</svg>
