<svg xmlns="http://www.w3.org/2000/svg" width="26" height="20" viewBox="0 0 26 20">
  <path id="youtube" d="M16,6a64.273,64.273,0,0,0-9.125.688A3.963,3.963,0,0,0,3.531,9.875,34.051,34.051,0,0,0,3,16a34.051,34.051,0,0,0,.531,6.125,3.958,3.958,0,0,0,3.344,3.188A64.619,64.619,0,0,0,16,26a64.62,64.62,0,0,0,9.125-.687,3.958,3.958,0,0,0,3.344-3.187A34.162,34.162,0,0,0,29,16a33.8,33.8,0,0,0-.531-6.125,3.963,3.963,0,0,0-3.344-3.187A64.273,64.273,0,0,0,16,6Zm0,2a63.121,63.121,0,0,1,8.844.656A1.966,1.966,0,0,1,26.5,10.25,31.92,31.92,0,0,1,27,16a31.957,31.957,0,0,1-.5,5.75,1.957,1.957,0,0,1-1.656,1.594A63.537,63.537,0,0,1,16,24a63.485,63.485,0,0,1-8.844-.656A1.962,1.962,0,0,1,5.5,21.75,31.885,31.885,0,0,1,5,16a31.849,31.849,0,0,1,.5-5.75A1.962,1.962,0,0,1,7.156,8.656,63.069,63.069,0,0,1,16,8Zm-3,2.281V21.719l1.5-.844,7-4L23,16l-1.5-.875-7-4Zm2,3.438L18.969,16,15,18.281Z" transform="translate(-3 -6)" fill="#b1ea8c"/>
</svg>
